<?xml version="1.0" encoding="utf-8"?>
<!-- Generator: Adobe Illustrator 16.0.3, SVG Export Plug-In . SVG Version: 6.00 Build 0)  -->
<!DOCTYPE svg PUBLIC "-//W3C//DTD SVG 1.1//EN" "http://www.w3.org/Graphics/SVG/1.1/DTD/svg11.dtd">
<svg version="1.1" id="Слой_1" xmlns="http://www.w3.org/2000/svg" xmlns:xlink="http://www.w3.org/1999/xlink" x="0px" y="0px"
	 width="28.5px" height="28.5px" viewBox="0 0 28.5 28.5" enable-background="new 0 0 28.5 28.5" xml:space="preserve">
<g>
	<g>
		<g>
			<g>
				<path fill="#4C70AB" d="M14.25,28.418c-7.808,0-14.16-6.352-14.16-14.16c0-7.808,6.352-14.16,14.16-14.16
					c7.808,0,14.161,6.352,14.161,14.16C28.41,22.066,22.058,28.418,14.25,28.418z M14.25,0.346
					c-7.671,0-13.913,6.241-13.913,13.912c0,7.672,6.242,13.912,13.913,13.912s13.913-6.24,13.913-13.912
					C28.162,6.587,21.921,0.346,14.25,0.346z"/>
			</g>
		</g>
		<g>
			<g>
				<circle fill="#4C70AB" cx="14.249" cy="14.258" r="12.693"/>
			</g>
		</g>
	</g>
	<g>
		<path fill="#FFFFFF" d="M18.14,10.77c-0.112-2.058-1.803-3.7-3.89-3.7c-2.088,0-3.779,1.642-3.891,3.7H7.093v10.676h14.313V10.77
			H18.14z M14.25,8.162c1.483,0,2.687,1.154,2.798,2.607h-5.597C11.561,9.316,12.767,8.162,14.25,8.162z"/>
	</g>
</g>
</svg>
