<?xml version="1.0" encoding="utf-8"?>
<!-- Generator: Adobe Illustrator 16.0.3, SVG Export Plug-In . SVG Version: 6.00 Build 0)  -->
<!DOCTYPE svg PUBLIC "-//W3C//DTD SVG 1.1//EN" "http://www.w3.org/Graphics/SVG/1.1/DTD/svg11.dtd">
<svg version="1.1" id="Слой_1" xmlns="http://www.w3.org/2000/svg" xmlns:xlink="http://www.w3.org/1999/xlink" x="0px" y="0px"
	 width="28.5px" height="28.5px" viewBox="0 0 28.5 28.5" enable-background="new 0 0 28.5 28.5" xml:space="preserve">
<g>
	<g>
		<g>
			<g>
				<path fill="#4C70AB" d="M14.25,28.5c-7.808,0-14.16-6.352-14.16-14.16c0-7.808,6.352-14.16,14.16-14.16
					c7.807,0,14.16,6.352,14.16,14.16C28.41,22.148,22.057,28.5,14.25,28.5z M14.25,0.429c-7.671,0-13.912,6.24-13.912,13.911
					c0,7.673,6.241,13.913,13.912,13.913c7.672,0,13.912-6.24,13.912-13.913C28.162,6.669,21.922,0.429,14.25,0.429z"/>
			</g>
			<g>
				<circle fill="#4C70AB" cx="14.25" cy="14.34" r="12.693"/>
			</g>
		</g>
	</g>
	<path fill="#FFFFFF" d="M16.477,14.468c0.832-0.625,1.377-1.61,1.377-2.731c0-1.891-1.531-3.422-3.422-3.422
		c-1.89,0-3.422,1.531-3.422,3.422c0,1.121,0.546,2.106,1.379,2.731c-2.446,0.847-4.206,3.166-4.206,5.9h12.5
		C20.682,17.634,18.922,15.314,16.477,14.468z"/>
</g>
</svg>
