<?xml version="1.0" encoding="utf-8"?>
<!-- Generator: Adobe Illustrator 16.0.3, SVG Export Plug-In . SVG Version: 6.00 Build 0)  -->
<!DOCTYPE svg PUBLIC "-//W3C//DTD SVG 1.1//EN" "http://www.w3.org/Graphics/SVG/1.1/DTD/svg11.dtd">
<svg version="1.1" id="Слой_1" xmlns="http://www.w3.org/2000/svg" xmlns:xlink="http://www.w3.org/1999/xlink" x="0px" y="0px"
	 width="28.5px" height="28.5px" viewBox="0 0 28.5 28.5" enable-background="new 0 0 28.5 28.5" xml:space="preserve">
<g>
	<g>
		<g>
			<g>
				<g>
					<path fill="#4C70AB" d="M14.25,28.41c-7.808,0-14.16-6.352-14.16-14.161c0-7.807,6.352-14.158,14.16-14.158
						c7.807,0,14.16,6.352,14.16,14.158C28.41,22.059,22.058,28.41,14.25,28.41z M14.25,0.339c-7.671,0-13.912,6.24-13.912,13.91
						c0,7.673,6.241,13.913,13.912,13.913s13.913-6.24,13.913-13.913C28.163,6.579,21.922,0.339,14.25,0.339z"/>
				</g>
			</g>
			<g>
				<g>
					<path fill="#4C70AB" d="M26.944,14.249c0,7.011-5.684,12.696-12.694,12.696c-7.01,0-12.693-5.686-12.693-12.696
						c0-7.008,5.684-12.691,12.693-12.691C21.261,1.558,26.944,7.241,26.944,14.249z"/>
				</g>
			</g>
		</g>
	</g>
	<g>
		<g>
			<path fill="#FFFFFF" d="M20.181,11.852c0-3.275-2.656-5.929-5.931-5.929c-3.274,0-5.929,2.653-5.929,5.929
				c0,2.181,1.19,4.066,2.944,5.096v0.209c0,1.236,1.002,2.238,2.238,2.238h1.494c1.236,0,2.238-1.002,2.238-2.238v-0.209
				C18.989,15.918,20.181,14.032,20.181,11.852z"/>
		</g>
		<g>
			<path fill="#FFFFFF" d="M16.065,20.24h-3.63c-0.646,0-1.17,0.523-1.17,1.17s0.524,1.17,1.17,1.17h3.63
				c0.646,0,1.17-0.523,1.17-1.17S16.712,20.24,16.065,20.24z"/>
		</g>
	</g>
</g>
</svg>
