<svg width="28.5px" height="28.5px">
<g>
	<g>
		<g>
			<path fill="#4C70AB" d="M14.25,28.41c-7.808,0-14.16-6.352-14.16-14.16c0-7.809,6.352-14.16,14.16-14.16
				c7.808,0,14.161,6.352,14.161,14.16C28.41,22.059,22.058,28.41,14.25,28.41z M14.25,0.338c-7.671,0-13.913,6.24-13.913,13.912
				c0,7.671,6.242,13.912,13.913,13.912s13.913-6.24,13.913-13.912C28.162,6.579,21.921,0.338,14.25,0.338z"/>
		</g>
		<g>
			<circle fill="#4C70AB" cx="14.249" cy="14.25" r="12.693"/>
		</g>
	</g>
	<g>
		<path fill="#FFFFFF" d="M19.145,8.645c0.559,0,1.014,0.454,1.014,1.015v5.253c0,0.56-0.455,1.015-1.014,1.015H9.356
			c-0.56,0-1.015-0.455-1.015-1.015V9.66c0-0.561,0.455-1.015,1.015-1.015H19.145 M19.145,7.63H9.356
			c-1.121,0-2.029,0.909-2.029,2.029v5.253c0,1.121,0.909,2.029,2.029,2.029h9.789c1.12,0,2.028-0.908,2.028-2.029V9.66
			C21.173,8.54,20.265,7.63,19.145,7.63L19.145,7.63z"/>
		<polygon fill="#FFFFFF" points="22.684,20.871 5.815,20.871 7.327,18.211 21.173,18.211 		"/>
	</g>
</g>
</svg>
