<?xml version="1.0" encoding="utf-8"?>
<!-- Generator: Adobe Illustrator 16.0.3, SVG Export Plug-In . SVG Version: 6.00 Build 0)  -->
<!DOCTYPE svg PUBLIC "-//W3C//DTD SVG 1.1//EN" "http://www.w3.org/Graphics/SVG/1.1/DTD/svg11.dtd">
<svg version="1.1" id="Слой_1" xmlns="http://www.w3.org/2000/svg" xmlns:xlink="http://www.w3.org/1999/xlink" x="0px" y="0px"
	 width="28.5px" height="28.5px" viewBox="0 0 28.5 28.5" enable-background="new 0 0 28.5 28.5" xml:space="preserve">
<g>
	<g>
		<g>
			<path fill="#4C70AB" d="M14.25,28.41c-7.808,0-14.16-6.352-14.16-14.16c0-7.808,6.352-14.16,14.16-14.16
				c7.808,0,14.161,6.352,14.161,14.16C28.41,22.059,22.058,28.41,14.25,28.41z M14.25,0.337c-7.671,0-13.913,6.241-13.913,13.913
				c0,7.672,6.242,13.912,13.913,13.912s13.913-6.24,13.913-13.912C28.162,6.579,21.921,0.337,14.25,0.337z"/>
		</g>
		<g>
			<circle fill="#4C70AB" cx="14.249" cy="14.25" r="12.693"/>
		</g>
	</g>
	<polygon fill="#FFFFFF" points="14.249,5.318 16.467,12.141 23.64,12.141 17.835,16.359 20.054,23.182 14.249,18.965 8.445,23.182 
		10.662,16.359 4.858,12.141 12.032,12.141 	"/>
</g>
</svg>
