<?xml version="1.0" encoding="utf-8"?>
<!-- Generator: Adobe Illustrator 16.0.3, SVG Export Plug-In . SVG Version: 6.00 Build 0)  -->
<!DOCTYPE svg PUBLIC "-//W3C//DTD SVG 1.1//EN" "http://www.w3.org/Graphics/SVG/1.1/DTD/svg11.dtd">
<svg version="1.1" id="Слой_1" xmlns="http://www.w3.org/2000/svg" xmlns:xlink="http://www.w3.org/1999/xlink" x="0px" y="0px"
	 width="28.5px" height="28.5px" viewBox="0 0 28.5 28.5" enable-background="new 0 0 28.5 28.5" xml:space="preserve">
<g>
	<g>
		<g>
			<g>
				<path fill="#4C70AB" d="M14.171,28.506c-7.808,0-14.16-6.352-14.16-14.159c0-7.81,6.352-14.161,14.16-14.161
					c7.807,0,14.16,6.352,14.16,14.161C28.331,22.154,21.979,28.506,14.171,28.506z M14.171,0.435
					c-7.671,0-13.912,6.24-13.912,13.912S6.5,28.259,14.171,28.259s13.913-6.24,13.913-13.912S21.843,0.435,14.171,0.435z"/>
			</g>
			<g>
				<circle fill="#4C70AB" cx="14.172" cy="14.347" r="12.694"/>
			</g>
		</g>
	</g>
	<path fill="#FFFFFF" d="M21.943,18.736c0.032,0.246-0.043,0.462-0.226,0.644l-2.14,2.123c-0.097,0.107-0.222,0.198-0.377,0.274
		c-0.156,0.074-0.309,0.124-0.459,0.145c-0.011,0-0.043,0.002-0.096,0.01c-0.055,0.004-0.124,0.007-0.21,0.007
		c-0.203,0-0.534-0.035-0.989-0.105c-0.455-0.068-1.013-0.241-1.672-0.514c-0.66-0.274-1.408-0.685-2.245-1.231
		c-0.836-0.547-1.727-1.298-2.67-2.251c-0.75-0.74-1.373-1.448-1.866-2.124c-0.493-0.675-0.89-1.3-1.19-1.874
		c-0.301-0.573-0.526-1.093-0.676-1.56c-0.15-0.468-0.252-0.87-0.306-1.208c-0.054-0.335-0.075-0.603-0.064-0.795
		c0.01-0.193,0.017-0.301,0.017-0.323C6.796,9.805,6.845,9.651,6.92,9.497C6.995,9.34,7.086,9.214,7.193,9.119l2.14-2.141
		c0.15-0.149,0.322-0.224,0.515-0.224c0.14,0,0.262,0.038,0.37,0.118c0.107,0.08,0.199,0.18,0.273,0.299l1.721,3.266
		c0.097,0.171,0.123,0.359,0.081,0.562c-0.043,0.204-0.134,0.377-0.274,0.516l-0.788,0.788c-0.021,0.021-0.04,0.056-0.056,0.106
		c-0.017,0.046-0.024,0.087-0.024,0.118c0.042,0.227,0.139,0.484,0.289,0.773c0.129,0.258,0.328,0.571,0.596,0.94
		c0.267,0.369,0.648,0.797,1.142,1.277c0.483,0.495,0.912,0.877,1.287,1.149c0.375,0.275,0.689,0.477,0.941,0.605
		s0.445,0.207,0.579,0.233l0.2,0.041c0.022,0,0.058-0.01,0.105-0.024c0.049-0.017,0.084-0.035,0.104-0.056l0.917-0.935
		c0.193-0.171,0.418-0.256,0.676-0.256c0.182,0,0.327,0.031,0.435,0.097h0.015l3.105,1.832C21.766,18.345,21.9,18.522,21.943,18.736
		z"/>
</g>
</svg>
